<?xml version="1.0" encoding="utf-8"?>
<!-- Generator: Adobe Illustrator 24.0.1, SVG Export Plug-In . SVG Version: 6.00 Build 0)  -->
<svg version="1.1" id="Layer_1" xmlns="http://www.w3.org/2000/svg" xmlns:xlink="http://www.w3.org/1999/xlink" x="0px" y="0px"
	 width="40px" height="40px" viewBox="0 0 40 40" style="enable-background:new 0 0 40 40;" xml:space="preserve">
<style type="text/css">
	.st0{fill:#222221;}
	.st1{fill:#FFFFFF;}
</style>
<g id="XMLID_1821_">
	<path id="XMLID_1823_" class="st0" d="M32.9,40H7.1C3.2,40,0,36.8,0,32.9V7.1C0,3.2,3.2,0,7.1,0h25.7C36.8,0,40,3.2,40,7.1v25.7
		C40,36.8,36.8,40,32.9,40z"/>
	<path id="XMLID_1822_" class="st1" d="M17,32.1h4.9V19.9h3.4l0.4-4.1h-3.8c0,0,0-1.5,0-2.3c0-1,0.2-1.3,1.1-1.3c0.7,0,2.6,0,2.6,0
		V7.9c0,0-2.8,0-3.4,0c-3.6,0-5.3,1.6-5.3,4.6c0,2.7,0,3.3,0,3.3h-2.5v4.1H17V32.1z"/>
</g>
<g>
</g>
<g>
</g>
<g>
</g>
<g>
</g>
<g>
</g>
</svg>
