<?xml version="1.0" encoding="utf-8"?>
<!-- Generator: Adobe Illustrator 24.0.1, SVG Export Plug-In . SVG Version: 6.00 Build 0)  -->
<svg version="1.1" id="Layer_1" xmlns="http://www.w3.org/2000/svg" xmlns:xlink="http://www.w3.org/1999/xlink" x="0px" y="0px"
	 width="40px" height="40px" viewBox="0 0 40 40" style="enable-background:new 0 0 40 40;" xml:space="preserve">
<style type="text/css">
	.st0{fill:#222221;}
	.st1{fill:#FFFFFF;}
</style>
<g id="XMLID_1811_">
	<path id="XMLID_1820_" class="st0" d="M32.9,40H7.1C3.2,40,0,36.8,0,32.9V7.1C0,3.2,3.2,0,7.1,0h25.7C36.8,0,40,3.2,40,7.1v25.7
		C40,36.8,36.8,40,32.9,40z"/>
	<g id="XMLID_1812_">
		<path id="XMLID_1817_" class="st1" d="M20,11c2.9,0,3.3,0,4.4,0.1c1.1,0,1.6,0.2,2,0.4c0.5,0.2,0.9,0.4,1.3,0.8
			c0.4,0.4,0.6,0.7,0.8,1.3c0.2,0.4,0.3,1,0.4,2C29,16.7,29,17.1,29,20c0,2.9,0,3.3-0.1,4.4c0,1.1-0.2,1.6-0.4,2
			c-0.2,0.5-0.4,0.9-0.8,1.3c-0.4,0.4-0.7,0.6-1.3,0.8c-0.4,0.2-1,0.3-2,0.4C23.3,29,22.9,29,20,29s-3.3,0-4.4-0.1
			c-1.1,0-1.6-0.2-2-0.4c-0.5-0.2-0.9-0.4-1.3-0.8c-0.4-0.4-0.6-0.7-0.8-1.3c-0.2-0.4-0.3-1-0.4-2C11,23.3,11,22.9,11,20
			c0-2.9,0-3.3,0.1-4.4c0-1.1,0.2-1.6,0.4-2c0.2-0.5,0.4-0.9,0.8-1.3c0.4-0.4,0.7-0.6,1.3-0.8c0.4-0.2,1-0.3,2-0.4
			C16.7,11,17.1,11,20,11 M20,9c-3,0-3.4,0-4.5,0.1c-1.2,0.1-2,0.2-2.7,0.5c-0.7,0.3-1.3,0.7-1.9,1.3c-0.6,0.6-1,1.2-1.3,1.9
			c-0.3,0.7-0.5,1.5-0.5,2.7C9,16.6,9,17,9,20s0,3.4,0.1,4.5c0.1,1.2,0.2,2,0.5,2.7c0.3,0.7,0.7,1.3,1.3,1.9c0.6,0.6,1.2,1,1.9,1.3
			c0.7,0.3,1.5,0.5,2.7,0.5C16.6,31,17,31,20,31s3.4,0,4.5-0.1c1.2-0.1,2-0.2,2.7-0.5c0.7-0.3,1.3-0.7,1.9-1.3
			c0.6-0.6,1-1.2,1.3-1.9c0.3-0.7,0.5-1.5,0.5-2.7C31,23.4,31,23,31,20s0-3.4-0.1-4.5c-0.1-1.2-0.2-2-0.5-2.7
			c-0.3-0.7-0.7-1.3-1.3-1.9c-0.6-0.6-1.2-1-1.9-1.3c-0.7-0.3-1.5-0.5-2.7-0.5C23.4,9,23,9,20,9"/>
		<path id="XMLID_1814_" class="st1" d="M20,14.4c-3.1,0-5.6,2.5-5.6,5.6s2.5,5.6,5.6,5.6c3.1,0,5.6-2.5,5.6-5.6S23.1,14.4,20,14.4
			 M20,23.7c-2,0-3.7-1.6-3.7-3.7c0-2,1.6-3.7,3.7-3.7s3.7,1.6,3.7,3.7C23.7,22,22,23.7,20,23.7"/>
		<path id="XMLID_1813_" class="st1" d="M27.2,14.1c0,0.7-0.6,1.3-1.3,1.3c-0.7,0-1.3-0.6-1.3-1.3s0.6-1.3,1.3-1.3
			C26.6,12.8,27.2,13.4,27.2,14.1"/>
	</g>
</g>
<g>
</g>
<g>
</g>
<g>
</g>
<g>
</g>
<g>
</g>
</svg>
