<?xml version="1.0" encoding="utf-8"?>
<!-- Generator: Adobe Illustrator 24.0.1, SVG Export Plug-In . SVG Version: 6.00 Build 0)  -->
<svg version="1.1" id="Layer_1" xmlns="http://www.w3.org/2000/svg" xmlns:xlink="http://www.w3.org/1999/xlink" x="0px" y="0px"
	 width="40px" height="40px" viewBox="0 0 40 40" style="enable-background:new 0 0 40 40;" xml:space="preserve">
<style type="text/css">
	.st0{fill:#222221;}
	.st1{fill:#FFFFFF;}
</style>
<g id="XMLID_1750_">
	<path id="XMLID_1756_" class="st0" d="M32.9,40H7.1C3.2,40,0,36.8,0,32.9V7.1C0,3.2,3.2,0,7.1,0h25.7C36.8,0,40,3.2,40,7.1v25.7
		C40,36.8,36.8,40,32.9,40z"/>
	<g id="XMLID_1751_">
		<g id="XMLID_1753_">
			<rect id="XMLID_1755_" x="10.9" y="15.5" class="st1" width="4.1" height="13.4"/>
			<path id="XMLID_1754_" class="st1" d="M13,13.8c1.4,0,2.4-1.1,2.4-2.5S14.3,8.9,13,8.9c-1.4,0-2.4,1.1-2.4,2.5S11.6,13.8,13,13.8
				z"/>
		</g>
		<path id="XMLID_1752_" class="st1" d="M21.7,21.9c0-1.9,0.9-3,2.5-3c1.5,0,2.3,1.1,2.3,3c0,1.9,0,7,0,7h4.1c0,0,0-4.9,0-8.5
			c0-3.6-2-5.3-4.9-5.3c-2.8,0-4,2.2-4,2.2v-1.8h-4v13.4h4C21.7,28.9,21.7,24,21.7,21.9z"/>
	</g>
</g>
<g>
</g>
<g>
</g>
<g>
</g>
<g>
</g>
<g>
</g>
</svg>
