<?xml version="1.0" encoding="utf-8"?>
<!-- Generator: Adobe Illustrator 24.0.1, SVG Export Plug-In . SVG Version: 6.00 Build 0)  -->
<svg version="1.1" id="Layer_1" xmlns="http://www.w3.org/2000/svg" xmlns:xlink="http://www.w3.org/1999/xlink" x="0px" y="0px"
	 width="40px" height="40px" viewBox="0 0 40 40" style="enable-background:new 0 0 40 40;" xml:space="preserve">
<style type="text/css">
	.st0{fill:#222221;}
	.st1{fill:#FFFFFF;}
</style>
<g id="XMLID_1826_">
	<path id="XMLID_1828_" class="st0" d="M32.9,40H7.1C3.2,40,0,36.8,0,32.9V7.1C0,3.2,3.2,0,7.1,0h25.7C36.8,0,40,3.2,40,7.1v25.7
		C40,36.8,36.8,40,32.9,40z"/>
	<path id="XMLID_1827_" class="st1" d="M9.3,26.7c1.9,1.2,4.2,2,6.7,2c8.1,0,12.7-6.9,12.4-13c0.9-0.6,1.6-1.4,2.2-2.3
		c-0.8,0.3-1.6,0.6-2.5,0.7c0.9-0.5,1.6-1.4,1.9-2.4c-0.8,0.5-1.8,0.9-2.8,1.1c-0.8-0.8-1.9-1.4-3.2-1.4c-2.8,0-4.9,2.6-4.3,5.4
		c-3.6-0.2-6.9-1.9-9-4.6c-1.1,2-0.6,4.5,1.4,5.8c-0.7,0-1.4-0.2-2-0.5c0,2,1.4,3.9,3.5,4.3c-0.6,0.2-1.3,0.2-2,0.1
		c0.6,1.7,2.2,3,4.1,3C14,26.3,11.7,27,9.3,26.7z"/>
</g>
<g>
</g>
<g>
</g>
<g>
</g>
<g>
</g>
<g>
</g>
</svg>
